<svg xmlns="http://www.w3.org/2000/svg" viewBox="0 0 512 512">
  <rect width="512" height="512" rx="112" fill="#0f0f14"/>
  <rect x="0" y="0" width="512" height="512" rx="112" fill="url(#grad)"/>
  <defs>
    <linearGradient id="grad" x1="0" y1="0" x2="512" y2="512" gradientUnits="userSpaceOnUse">
      <stop offset="0" stop-color="#1e1e2e"/>
      <stop offset="1" stop-color="#0a0a12"/>
    </linearGradient>
  </defs>
  <!-- Book pages -->
  <rect x="148" y="120" width="100" height="260" rx="8" fill="#1a1a28" stroke="#FFD60A" stroke-width="3"/>
  <rect x="264" y="120" width="100" height="260" rx="8" fill="#1a1a28" stroke="#FF453A" stroke-width="3"/>
  <!-- Spine -->
  <rect x="244" y="120" width="24" height="260" rx="4" fill="#FFD60A" opacity="0.9"/>
  <!-- Lines on left page -->
  <rect x="162" y="160" width="72" height="5" rx="2.5" fill="#FFD60A" opacity="0.6"/>
  <rect x="162" y="178" width="56" height="4" rx="2" fill="#ffffff" opacity="0.12"/>
  <rect x="162" y="194" width="64" height="4" rx="2" fill="#ffffff" opacity="0.12"/>
  <rect x="162" y="210" width="48" height="4" rx="2" fill="#ffffff" opacity="0.12"/>
  <rect x="162" y="230" width="72" height="5" rx="2.5" fill="#FF453A" opacity="0.7"/>
  <rect x="162" y="246" width="60" height="4" rx="2" fill="#ffffff" opacity="0.12"/>
  <rect x="162" y="262" width="52" height="4" rx="2" fill="#ffffff" opacity="0.12"/>
  <rect x="162" y="282" width="72" height="5" rx="2.5" fill="#32D74B" opacity="0.7"/>
  <rect x="162" y="298" width="58" height="4" rx="2" fill="#ffffff" opacity="0.12"/>
  <rect x="162" y="314" width="44" height="4" rx="2" fill="#ffffff" opacity="0.12"/>
  <!-- Lines on right page -->
  <rect x="278" y="160" width="72" height="5" rx="2.5" fill="#64D2FF" opacity="0.7"/>
  <rect x="278" y="178" width="56" height="4" rx="2" fill="#ffffff" opacity="0.12"/>
  <rect x="278" y="194" width="64" height="4" rx="2" fill="#ffffff" opacity="0.12"/>
  <rect x="278" y="210" width="48" height="4" rx="2" fill="#ffffff" opacity="0.12"/>
  <rect x="278" y="230" width="72" height="5" rx="2.5" fill="#FF9F0A" opacity="0.8"/>
  <rect x="278" y="246" width="60" height="4" rx="2" fill="#ffffff" opacity="0.12"/>
  <rect x="278" y="262" width="52" height="4" rx="2" fill="#ffffff" opacity="0.12"/>
  <rect x="278" y="282" width="72" height="5" rx="2.5" fill="#FFD60A" opacity="0.7"/>
  <rect x="278" y="298" width="58" height="4" rx="2" fill="#ffffff" opacity="0.12"/>
  <rect x="278" y="314" width="44" height="4" rx="2" fill="#ffffff" opacity="0.12"/>
  <!-- Fork & knife decoration -->
  <text x="256" y="430" font-size="64" text-anchor="middle" dominant-baseline="middle">🍽️</text>
</svg>